<mxfile host="app.diagrams.net" modified="2023-11-26T20:23:42.148Z" agent="Mozilla/5.0 (Windows NT 10.0; Win64; x64) AppleWebKit/537.36 (KHTML, like Gecko) Chrome/119.0.0.0 Safari/537.36" etag="_SnnqWMug_qu0tuDYkVN" version="22.1.4" type="github">
  <diagram name="Страница — 1" id="13ZsyIA3A2PHv1gfF3Tv">
    <mxGraphModel dx="574" dy="312" grid="1" gridSize="10" guides="1" tooltips="1" connect="1" arrows="1" fold="1" page="1" pageScale="1" pageWidth="1169" pageHeight="827" math="0" shadow="0">
      <root>
        <mxCell id="0" />
        <mxCell id="1" parent="0" />
        <mxCell id="u1M5d2YBWSQStyXBgiU--1" value="ЛПР" style="shape=umlActor;verticalLabelPosition=bottom;verticalAlign=top;html=1;outlineConnect=0;" vertex="1" parent="1">
          <mxGeometry x="160" y="310" width="30" height="60" as="geometry" />
        </mxCell>
        <mxCell id="u1M5d2YBWSQStyXBgiU--2" value="" style="endArrow=none;html=1;rounded=0;endFill=0;" edge="1" parent="1">
          <mxGeometry width="50" height="50" relative="1" as="geometry">
            <mxPoint x="200" y="340" as="sourcePoint" />
            <mxPoint x="290" y="320" as="targetPoint" />
          </mxGeometry>
        </mxCell>
        <mxCell id="u1M5d2YBWSQStyXBgiU--3" value="Ввести весовые&lt;br&gt;коэффициенты" style="ellipse;whiteSpace=wrap;html=1;" vertex="1" parent="1">
          <mxGeometry x="290" y="300" width="120" height="40" as="geometry" />
        </mxCell>
      </root>
    </mxGraphModel>
  </diagram>
</mxfile>
